<?xml version="1.0" encoding="UTF-8"?>
<!DOCTYPE svg PUBLIC "-//W3C//DTD SVG 1.0//EN" "http://www.w3.org/TR/2001/REC-SVG-20010904/DTD/svg10.dtd">
<!-- Creator: CorelDRAW 2019 (64-Bit) -->
<svg xmlns="http://www.w3.org/2000/svg" xml:space="preserve" width="100%" height="100%" version="1.0" style="shape-rendering:geometricPrecision; text-rendering:geometricPrecision; image-rendering:optimizeQuality; fill-rule:evenodd; clip-rule:evenodd"
viewBox="0 0 21166.7 21166.7"
 xmlns:xlink="http://www.w3.org/1999/xlink"
 xmlns:xodm="http://www.corel.com/coreldraw/odm/2003">
 <defs>
  <style type="text/css">
   <![CDATA[
    .fil1 {fill:#FEFEFE}
    .fil0 {fill:#00A2E9}
   ]]>
  </style>
 </defs>
 <g id="图层_x0020_1">
  <metadata id="CorelCorpID_0Corel-Layer"/>
  <rect class="fil0" width="21166.7" height="21166.7" rx="2000" ry="2000"/>
  <g id="_1954956339952">
   <path class="fil1" d="M4464.18 10504.21c0,733.24 103.46,1418.42 303.43,2090.06 153.6,515.88 389.08,1068 685.12,1510.33 -49.25,32.99 -126.07,98.7 -172.98,143.44 -40.5,38.6 -47.46,39.6 -86.81,71.39 -38.92,31.45 -56.43,51.19 -96.13,81.87l-1438.3 1211.7c-40.5,38.61 -47.46,39.61 -86.81,71.42 -38.72,31.27 -56.72,51.27 -96.08,81.9 -137.74,107.1 -640.35,508.64 -708.94,616.07 -35.86,56.14 -81.91,166.7 -81.91,254.34l0 2888.22c0,216.84 216.7,454.99 434.96,454.99l14927.24 0c217.49,0 434.96,-217.58 434.96,-435.21l0 -3422.34c0,-546.3 -949.03,-615.19 -949.03,39.57l0 2868.43 -13899.11 0 0 -2116.7c0,-70.61 415.56,-386.39 497.05,-452.23 276.43,-223.38 535.44,-466.81 816.28,-686.71l301.78 -251.95c247.92,-208.75 489.05,-447.1 757.43,-626.91 39.41,28.9 60.22,69.67 103.74,113.81 112.6,114.23 217.86,271.78 350.99,360.97 -96.67,144.44 -383.25,344.01 -516.95,452.08l-525.83 443.22c-253.07,225.47 -645.08,563.38 -914.96,766.01 -51.77,38.86 -98.45,67.41 -98.45,158.66l0 1325.4c0,125.48 112.99,178.05 237.23,178.05l12040.64 0c96.46,0 237.26,-45 237.26,-158.25l0 -1899.11c0,-241.44 -375.65,-213.96 -375.65,-39.55l0 1701.27 -11763.83 0 0 -949.55c0,-68.4 172.93,-182.2 228.9,-225.96 422.71,-330.46 819.47,-699.14 1236.94,-1037.34 85.43,-69.21 161.25,-133.57 248.13,-206.71 82.65,-69.6 174.35,-164.49 263.14,-211.49 124.65,83.51 442.26,359.5 720.52,545.13 68.64,45.8 125,79.7 195.13,121.28 794.73,471.4 1647.23,799.64 2587.26,912.76 779.76,93.83 1629.18,50.77 2309.62,-115.47 486.47,-118.86 957.08,-270.75 1403.94,-494.37 106.59,-53.34 332.63,-193.75 434.96,-217.6 153.1,112.23 851.64,1422.14 1068.04,1562.42 210.48,136.43 498.5,130.82 687.2,-43.6 179.84,-166.21 226.6,-465.91 95.47,-680.17l-379.85 -589.27c-37.55,-56.16 -55.53,-93.63 -90.45,-146.88 -156.93,-239.32 -336.18,-480.74 -470.93,-735.54 30.47,-45.53 58.88,-73.43 107.15,-110.39l207.34 -188.19c3.13,-2.64 7.62,-6.38 10.77,-9.01l255.88 -258.31c2.76,-2.98 6.84,-7.18 9.6,-10.18 2.76,-3 6.72,-7.31 9.46,-10.31 480.98,-526.07 886.11,-1108.16 1188.8,-1758.09 366.17,-786.28 623.09,-1741.64 623.09,-2620.87 0,-602.24 -21.13,-1195.61 -167,-1771.59 -98.33,-388.31 -222.86,-751.01 -366.83,-1116.64 -101.68,-258.21 -231.8,-499.48 -367.15,-740.44 -138.73,-247.03 -184.9,-268.7 -462.86,-228.62 -94.07,13.57 -203.93,56.94 -269.71,106.12 -126.29,94.41 -284.26,297.34 -284.26,467.3 0,58.92 258.35,497.52 322.74,626.64 106.2,212.9 201.35,448.6 270.39,679 48.61,162.17 93.39,332.78 134.76,498.2 92.05,368.27 166.85,1052.06 125.15,1423.57 -11.26,100.29 5.12,210.14 -5.7,310.8 -130.05,1208.3 -565.35,2255.85 -1297.52,3152.77 -146.74,179.73 -454.43,525.78 -637.23,648.26 -82.2,-122.82 -156.33,-246.09 -241.24,-371.89 -59.66,-88.4 -209.3,-290.05 -233.28,-379.83l496.14 -492.71c158.71,-172.48 299.17,-364.8 429.22,-559.64 182.11,-272.85 331.98,-563.69 450.28,-874.89 495.62,-1303.74 420.47,-2873.54 -311.57,-4083.02 -27.32,-45.15 -49.82,-93.15 -82.54,-135.28 -106,-136.43 -331.3,-1.06 -384.62,117.81 -38.65,86.16 76.24,196.15 114.98,270.95 547.3,1056.38 697.02,2058.23 403.45,3232.79 -77.37,309.59 -198.6,589.3 -324.47,842.51 -68.45,137.68 -133.75,231.09 -211.2,362.38 -157.42,266.85 -593.38,814.42 -836.68,943.23 -370.96,-554.28 -299.05,-414.53 -209.59,-684.48 283.36,-855.1 -332.05,-1788.31 -1312.8,-1788.31 -131.49,0 -171.14,19.78 -296.57,19.78 26.26,112.79 618.43,913.75 719.84,1060.17 155.11,223.93 144.97,177.71 5.34,456.72 -46.99,93.88 -87.13,155.54 -112.27,263.51 -195.88,0 -356.98,39.57 -573.36,39.57 -54.75,0 -91.29,-88.36 -124.22,-132.87l-547.93 -777.18c-56.83,-80.08 -141.78,-271.13 -237.32,-296.66 -32.79,140.85 -399.08,666.61 -66.15,1332.24 91.18,182.24 206.8,339.48 365.24,465.4 254.8,202.48 529.03,319.07 887.17,319.07 88.26,0 300.95,-32.99 355.88,-59.36 61.96,117.16 205.03,274.87 237.25,395.64 -69.21,16.15 -118.23,46.65 -180.91,76.16 -426.15,200.77 -997.17,339.28 -1479.86,339.28 -491.73,0 -852.84,-12.87 -1324.6,-138.53 -268.26,-71.47 -532.93,-166.64 -764.6,-283.46 -1156.66,-583.31 -2053.87,-1632.55 -2321.4,-2919.58 -206.07,-991.39 -120.99,-1773.57 255.81,-2694.89 152.7,-373.38 439.31,-830.59 729.07,-1130.05 27.58,-28.5 42.36,-40.42 69.01,-69.42l145.9 -150.77c531.07,-532.65 1214.82,-905.24 1954.13,-1091.23 155.65,-39.14 299.94,-59.56 452.11,-81.74 596.84,-87.04 1266.62,-23.74 1810.57,134.74l616.02 236.2c57.83,27.38 70.36,37.89 116.04,16.39 122.7,-57.78 140.21,-209.81 140.21,-334.05 0,-81.28 -352.61,-202.51 -424.5,-228.09 -167.9,-59.75 -330.36,-119.79 -513.09,-159.21 -177.95,-38.38 -363.48,-91.32 -546.85,-105.68 -626.06,-49 -1054.19,-55.47 -1671.23,85.28 -676.01,154.21 -1252.22,431.35 -1792.77,837.28l-612.17 554.63c-60.19,59.76 -87.66,85.23 -141.92,154.73 -269.39,344.94 -503.13,674.92 -693.75,1086.27 -127.71,275.53 -225.15,553.95 -302.38,864.6 -98.4,395.83 -95.93,664.88 -137.41,1050.74 -17.22,160.07 76.06,921.16 106.09,1050.19 20.51,88.13 31.27,155.48 55.5,241.2 209.51,741.26 578.79,1424.57 1097.15,1988.27l783.76 679.68c38.69,25.58 51.15,40.06 91.6,66.61 61.56,40.41 117.81,73.95 182.7,113.93 132.18,81.42 251.26,137.68 387.01,206.25 1163.48,587.73 2746.4,601.18 3954.09,59.06 73.3,-32.92 132.54,-78.85 217.7,-98.69 16.46,61.63 78.36,148.04 114.66,201.8l379.63 589.49c-253.27,169.68 -585.16,293.6 -878.28,407.07l-327.72 107.31c-961.4,275.74 -1827.71,266.57 -2792.7,64.22 -463.03,-97.08 -869.97,-255.5 -1260.69,-459.64 -47.58,-24.88 -63.16,-38.72 -112.07,-65.92 -45.73,-25.41 -70.79,-34.18 -116.66,-61.32 -292.38,-173.05 -554.91,-353.45 -812.79,-571.53 -704.06,-595.35 -1256.22,-1360.24 -1599.11,-2217.95 -531.65,-1329.82 -530.5,-2909.82 -8.24,-4224.77 22.57,-56.86 37.35,-111.97 65.47,-171.87l237.24 -474.78c52.18,-104.86 119.19,-213.47 183.19,-311.26 325.45,-497.2 565.35,-766.52 992.01,-1163.71 204.75,-190.59 430.19,-364.61 664.95,-521.61 1215.89,-813.12 2771.57,-1115.44 4219.32,-775.38 461.8,108.48 838.26,253.22 1259.08,443.64 53.3,24.11 -46.92,-12.12 26.79,12.48 116.87,39.01 315.93,-153.34 393.37,-247.67 117.35,-142.96 139.87,-388.16 87.57,-571.71 -21.82,-76.58 -30.07,-103.67 -89.5,-147.84 -103.26,-76.75 -194.55,-119.89 -323.26,-171.12 -1560.69,-621.21 -3118.17,-669.63 -4703.8,-145.14 -117.11,38.74 -194.4,75.25 -301.71,113.54 -738.71,263.74 -1824.45,985.88 -2356.9,1618.02 -429.15,509.51 -672.18,761.07 -1006.25,1406.64 -168.21,325.08 -318.12,647.09 -442.76,1001.09 -232.3,659.67 -368.08,1411.73 -368.08,2124.27z"/>
   <path class="fil1" d="M2684.77 1641.75l0 3125.6c0,269.03 181.6,456.46 443.2,487.73 245.54,29.38 505.82,-196.92 505.82,-428.37l0 -2690.41 13899.11 0 0 2274.97c-61.27,16.37 -96.45,63.68 -182.48,133.94l-2027.33 1631.24c-64.51,52.81 -124.92,94.99 -186.9,149.3 -300.17,262.96 -834.03,649.45 -1107.21,890.16 -67.88,59.8 -119.89,91.66 -187.24,148.96l-1101.59 895.8c-133.1,104.59 -245.98,190.27 -373.55,298.85l-374.16 298.21c-267.53,218.48 -358.69,501.97 -119.5,761.71 74.8,81.24 240.34,152.84 321.76,152.84 264.39,0 419.14,-199.53 573.01,-316.86l1087.89 -869.96c65.41,-50.98 126.97,-106.77 194.98,-160.98l2465.27 -1984.36c527.66,-394.49 1149.51,-952.36 1678.23,-1347.53 121.82,-91.04 287.85,-225.94 287.85,-424.16l0 -3046.46c0,-217.63 -217.47,-435.21 -434.96,-435.21l-14927.24 0c-218.26,0 -434.96,238.15 -434.96,454.99z"/>
   <path class="fil1" d="M4404.87 3125.42l0 1701.29c0,192.55 375.65,191.72 375.65,0l0 -1483.68 11526.57 0c0,720.86 69.93,441.43 -351.08,835.64 -32.93,30.83 -45.94,49.23 -80.95,77.27 -44.6,35.74 -52.87,37.2 -96.95,81.05l-2027.34 1789.48c-40.05,33.7 -47.6,31.95 -88.23,70 -181.2,169.66 -242.03,156.83 -242.03,331.51 0,98.69 96.68,178.05 177.94,178.05 146.86,0 398.22,-287.87 519.87,-389.83l483.67 -426.05c42.55,-37.52 56.01,-39.01 98.87,-79.12 44.66,-41.82 55.95,-57.67 103.63,-94.12 43.8,-33.51 52.22,-43.9 93.68,-84.3l484.33 -425.39c43.29,-43.38 53.4,-45.75 97.12,-80.88 40.65,-32.66 60.41,-57.79 103.18,-94.58l95.91 -82.07c42.26,-38.46 54.89,-46.35 97.51,-80.47 72.63,-58.14 117.52,-113.84 197.7,-178.06l190 -165.98c71.66,-67.1 128.48,-110.53 197.52,-178.23l51.73 -47.16c3.09,-2.65 7.58,-6.43 10.71,-9.07 130.25,-109.99 278.64,-205.88 278.64,-334.44l0 -811.07c0,-107.56 -91.23,-197.82 -197.71,-197.82l-11882.46 0c-123.38,0 -217.48,56.6 -217.48,178.03z"/>
  </g>
 </g>
</svg>
