<?xml version="1.0" encoding="UTF-8"?>
<!DOCTYPE svg PUBLIC "-//W3C//DTD SVG 1.0//EN" "http://www.w3.org/TR/2001/REC-SVG-20010904/DTD/svg10.dtd">
<!-- Creator: CorelDRAW 2019 (64-Bit) -->
<svg xmlns="http://www.w3.org/2000/svg" xml:space="preserve" width="100%" height="100%" version="1.0" style="shape-rendering:geometricPrecision; text-rendering:geometricPrecision; image-rendering:optimizeQuality; fill-rule:evenodd; clip-rule:evenodd"
viewBox="0 0 21531.29 3069.17"
 xmlns:xlink="http://www.w3.org/1999/xlink"
 xmlns:xodm="http://www.corel.com/coreldraw/odm/2003">
 <defs>
  <style type="text/css">
   <![CDATA[
    .fil0 {fill:#00A2E9}
    .fil1 {fill:#FEFEFE;fill-rule:nonzero}
   ]]>
  </style>
 </defs>
 <g id="图层_x0020_1">
  <metadata id="CorelCorpID_0Corel-Layer"/>
  <rect class="fil0" x="-0" y="-0.01" width="21531.29" height="3069.17" rx="1315.38" ry="1000"/>
  <path class="fil1" d="M1063.15 878.43l341.18 0 269.37 0 0 -430.84 359.42 0 0 54.72 1086.03 0 -129.64 242.21 -956.39 0 0 133.91 702.54 0 360.59 0 2.33 832.56 -341.18 268.21 -504.98 1.16 0 141.29 891.57 0 -130.81 245.31 -760.76 0 0 104.79 -360.19 155.65 0 -260.44 -838.39 0 0 -245.31 838.39 0 0 -141.29 -827.91 0 -1.17 -1101.93zm1619.34 415.31l-128.48 244.53 -1130.27 -1.16 0 193.29 1311.92 0 0 -606.28 -1311.92 0 0 169.62 1258.75 0zm3216.8 144.39l666.45 408.33 -544.57 0 -476.64 -296.93 -476.64 296.93 -543.4 0 664.11 -408.33 -647.03 0 0 -211.54 813.16 0 0 -68.31 378.44 0 0 68.31 334.58 0 -37.65 -83.06 311.68 0 38.42 83.06 199.12 0 -96.65 211.54 -583.38 0zm658.29 -956.39l0 381.94 -321.77 252.68 -628.79 0 0 -634.62 950.56 0zm-604.72 223.96l0 190.97 259.28 0 1.16 -190.97 -260.44 0zm-473.15 -223.96l0 397.85 -321.77 251.52 -629.96 0 0 -649.37 951.73 0zm-605.89 223.96l0 202.61 260.05 0 0 -202.61 -260.05 0zm1683.76 1212.17l0 381.16 -321.77 251.13 -628.79 0 0 -632.29 950.56 0zm-604.72 222.8l0 190.19 259.28 1.16 1.16 -191.35 -260.44 0zm-469.66 -222.8l0 381.16 -321.77 251.13 -628.79 0 0 -632.29 950.56 0zm-606.28 222.8l0 190.19 260.45 1.16 1.16 -191.35 -261.61 0zm3544.4 -1590.61l636.95 0 -111.4 229.39 -216.2 0 0 113.73 319.45 0 -103.25 223.18 -192.13 0 348.94 387.75 -387.76 -1.16 -160.3 -176.22 -188.64 180.49 -414.15 0 406 -390.86 -378.44 0 0 -223.18 409.11 0 0 -113.73 -77.25 0 -23.67 50.07 -342.34 2.33 179.71 -380.77 341.95 0 -46.58 98.98zm-403.67 1030.13l1990.01 0 0 667.61 -374.17 307.02 -1615.84 0 0 -974.63zm371.85 228.62l0 161.46 1206.73 0 -98.97 215.03 -1107.76 0 0 149.83 1245.16 0 0 -526.32 -1245.16 0zm702.92 -331.09l0 -995.98 932.32 0 0 695.94 -341.18 300.04 -591.14 0zm589.98 -766.2l-249.96 0 0 528.66 251.12 -2.33 -1.16 -526.33zm2399.38 1332.5l-71.42 175.44 -189.03 0 0 242.2 -340.79 130.42 0 -1392.66 943.58 0 0 1090.29 -281.02 271.71 -228.22 0 0 -234.06 166.9 0 0 -283.34zm0 -51.23l0 -351.27 -76.08 183.2 -184.37 0 0 168.07 260.45 0zm0 -394.36l0 -173.89 -260.45 0 0 173.89 260.45 0zm-260.45 -732.42l273.26 0 -58.23 -215.04 319.45 0 114.89 442.49 -319.45 0 -45.41 -177.38 -77.24 177.38 -576.78 0 0 -246.86 271.7 -373.01 365.24 0 -267.43 392.42zm1070.11 683.52l0 199.89 612.88 -146.33 -47.74 272.86 -565.14 142.06 0 309.35 628.8 0 -107.91 227.46 -858.57 0 0 -1005.29 337.68 0zm-337.68 -1075.94l337.68 0 0 215.03 595.8 -156.81 -45.41 288.78 -545.73 140.9 0 292.27 622.2 0 -105.97 227.45 -858.57 0 0 -1007.62zm4001.63 -10.09l314.01 0 0 1522.69 154.48 -9.32 -88.88 268.6 -65.6 5.82 0 239.87 -314.01 129.64 0 -357.09 -568.63 40.75 0 -264.71 568.63 -38.81 0 -1537.44zm-307.02 166.13c31.05,0.77 62.88,9.7 95.48,26.78 32.61,17.08 57.84,41.14 75.69,72.19 17.86,31.05 26.78,64.82 27.17,101.7 0.39,36.87 -8.15,69.86 -25.62,99.36 -18.24,30.28 -43.08,54.73 -74.52,72.97 -31.44,18.24 -64.04,27.17 -98.2,27.17 -35.71,0.78 -69.09,-8.15 -100.14,-26 -31.05,-18.25 -55.51,-43.09 -73.36,-74.14 -17.85,-31.05 -26.78,-64.04 -27.17,-99.36 -0.39,-35.32 8.93,-68.71 27.95,-100.53 17.85,-32.61 43.08,-57.45 75.3,-74.53 32.21,-17.07 64.82,-25.61 97.42,-25.61zm0 680.02c32.6,0.78 64.82,9.32 96.65,26.01 31.83,16.69 56.67,41.14 74.52,72.97 17.86,31.83 26.78,65.6 27.17,100.92 0.39,35.71 -8.15,68.7 -25.62,98.97 -18.24,31.83 -42.69,56.67 -73.74,74.14 -31.05,17.47 -64.05,26 -98.98,26 -36.49,0.78 -69.87,-7.76 -100.14,-25.61 -30.28,-17.86 -54.73,-42.31 -73.36,-73.75 -18.63,-31.44 -27.56,-65.21 -26.78,-100.92 0,-33.77 9.31,-67.15 27.94,-99.75 18.64,-32.6 43.48,-57.45 74.53,-74.14 31.05,-16.69 63.65,-24.84 97.81,-24.84zm-357.09 2.33l72.97 1135.71 -270.92 0 -69.09 -1135.71 267.04 0zm-300.04 -117.22l0 1290.58 -301.58 107.9 0 -1398.48 -384.27 0 0 -252.68 384.27 0 0 -170.39 -364.86 35.32 0 -269.76 1039.45 -95.49 -67.15 263.94 -305.86 38.82 0 197.56 373.01 0 -114.89 252.68 -258.12 0zm-694 1252.93l85.39 -1135.71 276.36 0 -77.24 1135.71 -284.51 0zm4731.73 -1397.32l0 -170.78 -336.52 0 0 -254.62 336.52 0 0 -169.23 381.16 0 0 169.23 430.84 0 -123.82 254.62 -307.02 0 0 170.78 394.35 0 0 260.45 -377.66 611.71 450.63 635.78 -444.81 0 -211.54 -308.19 -187.47 302.37 -437.82 0 400.17 -629.96 -320.61 -464.99 426.57 0 99.76 142.06 184.36 -288.78 -693.61 0 0 -260.45 336.52 0zm-563.97 69.09l201.45 0 -201.45 361.75 0 818.6 -314.01 275.58 -319.44 0 0 -253.85 269.76 0 0 -333.02 -349.33 0 349.33 -607.45 0 -469.65 -298.09 0 0 -259.28 298.09 0 0 -188.64 363.69 0 0 188.64 180.88 0 -120.72 259.28 -60.16 0 0 208.04z"/>
 </g>
</svg>
